# xmcd
#
# Track frame offsets:
#	150
#	9006
#	14483
#	21591
#	30591
#	37450
#	46879
#	52021
#	56147
#	64944
#	75414
#	85851
#	100535
#	110797
#	125183
#	142244
#	155977
#	169023
#	177438
#	190691
#	200573
#	214029
#	220250
#	231511
#	239047
#	245302
#	257108
#	264726
#	273266
#	278953
#	284995
#	291351
#	302396
#	309759
#	315360
#	321986
#
# Disc length: 4407 seconds
#
# Revision: 1
# Processed by: cddbd v1.5.2PL0 Copyright (c) Steve Scherf et al.
# Submitted via: audiograbber 1.83.01
#
DISCID=2f113524
DTITLE=ADELSON VIANA - O AUTÊNTICO FORRÓ NA PISADA QUE O POVO GOSTA
DYEAR=1900
DGENRE=
TTITLE0=A VIDA DO VIAJANTE
TTITLE1=UMBUZEIRO DA SAUDADE
TTITLE2=ESTRADA DE CANINDÉ
TTITLE3=ANA MARIA
TTITLE4=ESPUMAS AO VENTO
TTITLE5=A SAUDADE MATA
TTITLE6=XOTE ECOLÓGICO
TTITLE7=QUASE MORRI DE AMOR
TTITLE8=DE VOLTA PRO ACONCHEGO
TTITLE9=ZÉ MATUTO
TTITLE10=DOU-LHE UMA RASTEIRA
TTITLE11=ANJO QUERUBIM
TTITLE12=CONFIDÊNCIA
TTITLE13=QUERER
TTITLE14=A NATUREZA DAS COISAS
TTITLE15=CASA VELHA
TTITLE16=POXA
TTITLE17=O NENÊM
TTITLE18=NENÊM MULHER
TTITLE19=FORRÓ DE CABO A RABO
TTITLE20=A PROCURA DE FORRÓ
TTITLE21=MAXIXADA(INST.)
TTITLE22=AMOR MY LOVY
TTITLE23=MEU CENÁRIO DE AMOR
TTITLE24=O AMOR QUE DOU
TTITLE25=REIZADO
TTITLE26=MEU BOMBOM
TTITLE27=PODE MORRER NESSA JANELA
TTITLE28=APROVEITA GENTE
TTITLE29=NEM SE DESPEDIU DE MIM
TTITLE30=BEIJO DOCE
TTITLE31=ONDE TU TÁ NENÊM
TTITLE32=DEIXA CLAREAR
TTITLE33=CANÇÃO DE FOGUEIRA
TTITLE34=MADALENA
TTITLE35=ISSO AQUI TÁ BOM DEMAIS
EXTD=
EXTT0=
EXTT1=
EXTT2=
EXTT3=
EXTT4=
EXTT5=
EXTT6=
EXTT7=
EXTT8=
EXTT9=
EXTT10=
EXTT11=
EXTT12=
EXTT13=
EXTT14=
EXTT15=
EXTT16=
EXTT17=
EXTT18=
EXTT19=
EXTT20=
EXTT21=
EXTT22=
EXTT23=
EXTT24=
EXTT25=
EXTT26=
EXTT27=
EXTT28=
EXTT29=
EXTT30=
EXTT31=
EXTT32=
EXTT33=
EXTT34=
EXTT35=
PLAYORDER=
